<svg xmlns="http://www.w3.org/2000/svg" viewBox="0 0 980 220" role="img" aria-labelledby="title desc">
  <title id="title">PAC wordmark</title>
  <desc id="desc">PAC icon with Pi Agent Controller wordmark.</desc>
  <defs>
    <linearGradient id="pacBlueWordmark" x1="0%" y1="100%" x2="100%" y2="0%">
      <stop offset="0%" stop-color="#1457c8"/>
      <stop offset="52%" stop-color="#1f7fe2"/>
      <stop offset="100%" stop-color="#2fb9ff"/>
    </linearGradient>
  </defs>
  <g transform="translate(8 12)" fill="url(#pacBlueWordmark)" stroke="#35b8ff" stroke-width="4" stroke-linejoin="round">
    <path d="M56 10h108l-37 64H56z"/>
    <path d="M180 21l93 54-55 32-63-37z"/>
    <path d="M286 97v111l-63-36v-79z"/>
    <path d="M206 284l-76 44-76-44 37-64h78z" transform="translate(0 -86)"/>
    <path d="M39 198L-23 162V55l62 36z" transform="translate(23 10)"/>
    <path d="M35 22v86L-27 144V75z" transform="translate(23 0)"/>
    <circle cx="112" cy="108" r="26" fill="#1f8df0" stroke="#35b8ff" stroke-width="4"/>
    <path d="M98 129h28v62H98z" fill="#1f8df0" stroke="#35b8ff" stroke-width="4"/>
  </g>
  <g fill="#ffffff" font-family="IBM Plex Sans, Inter, Arial, sans-serif">
    <text x="340" y="92" font-size="108" font-weight="700" letter-spacing="4">PAC</text>
    <text x="342" y="152" font-size="52" font-weight="600" letter-spacing="5">PI AGENT CONTROLLER</text>
  </g>
</svg>
